<svg xmlns="http://www.w3.org/2000/svg" width="64.626" height="20" viewBox="0 0 64.626 20">
  <path id="logo-tiki" d="M296.4,116.285h-3.644a.415.415,0,0,1-.411-.479l1.228-7.857a.416.416,0,0,0-.412-.479H290c2.131-.305,3.9-1.593,4.139-3.136.276-1.771-1.56-3.206-4.1-3.207s-4.826,1.434-5.1,3.205c-.242,1.542,1.123,2.831,3.158,3.137h-2.7l-9.62,0a.418.418,0,0,0-.308.136l-3.767,4.127a.416.416,0,0,1-.308.136h-.946a.416.416,0,0,1-.411-.479l1.4-8.952a.416.416,0,0,0-.412-.479l-8.361,0a.416.416,0,0,0-.412.351l-2.13,13.63a.417.417,0,0,1-.412.351h-1.77a.416.416,0,0,1-.412-.479l1.229-7.865a.415.415,0,0,0-.411-.479h-3.162c2.132-.306,3.9-1.593,4.139-3.136.276-1.77-1.559-3.206-4.1-3.207s-4.826,1.434-5.1,3.205c-.241,1.542,1.122,2.831,3.158,3.137h-7.742a.415.415,0,0,1-.412-.479l.712-4.553a.415.415,0,0,0-.411-.479l-8.36,0a.416.416,0,0,0-.412.351l-.751,4.809a.416.416,0,0,1-.412.351h-2.256a.416.416,0,0,0-.412.351l-.625,4a.416.416,0,0,0,.412.479h2a.415.415,0,0,1,.411.479l-1.229,7.863a.416.416,0,0,0,.411.479l8.361,0a.417.417,0,0,0,.412-.352l1.268-8.118a.417.417,0,0,1,.412-.352h1.4a.418.418,0,0,0,.3-.126l2.113-2.17a.416.416,0,0,1,.71.353l-1.607,10.287a.415.415,0,0,0,.411.478h1.263l7.277,0a.418.418,0,0,0,.3-.126l2.078-2.134a.416.416,0,0,1,.71.352l-.223,1.428a.415.415,0,0,0,.412.479l8.36,0a.415.415,0,0,0,.412-.351l.582-3.719a.415.415,0,0,1,.412-.351h1.008a.416.416,0,0,1,.357.2l2.41,4.018a.417.417,0,0,0,.358.2h17.819v-.006h.992a.42.42,0,0,0,.3-.126l3.892-4A.414.414,0,0,0,296.4,116.285Zm-12.338-6.374-1.4,8.99a.416.416,0,0,1-.758.165l-2.988-4.495a.415.415,0,0,1,.049-.519l4.393-4.494A.416.416,0,0,1,284.062,109.911Z" transform="translate(-232.191 -101.119)" fill="#fff"/>
</svg>
